<?xml version="1.0" encoding="utf-8"?>
<!-- Generator: Adobe Illustrator 28.1.0, SVG Export Plug-In . SVG Version: 6.00 Build 0)  -->
<svg version="1.1" id="Camada_1" xmlns="http://www.w3.org/2000/svg" xmlns:xlink="http://www.w3.org/1999/xlink" x="0px" y="0px"
	 viewBox="0 0 10 10" style="enable-background:new 0 0 10 10;" xml:space="preserve">
<style type="text/css">
	.st0{fill:#E65A2E;}
	.st1{fill:#CD5128;}
	.st2{fill:#263740;}
	.st3{fill:#1F2D34;}
	.st4{fill:#466474;}
	.st5{fill:#3D5967;}
	.st6{fill:#FFD465;}
	.st7{fill:#242424;}
</style>
<g id="XMLID_1_">
	<circle id="XMLID_3_" class="st0" cx="5" cy="5" r="4.71"/>
	<path id="XMLID_4_" class="st1" d="M9.16,7.22c0-0.01-0.01-0.03-0.01-0.04c0-0.01-0.01-0.03-0.01-0.04c0-0.01-0.01-0.03-0.01-0.04
		c0-0.01-0.01-0.03-0.01-0.04C9.1,7.02,9.08,7.01,9.08,7c0-0.01-0.01-0.03-0.01-0.04c0-0.01-0.01-0.03-0.01-0.04
		c0-0.01-0.01-0.03-0.01-0.04c0-0.01-0.01-0.03-0.01-0.04c0-0.01-0.01-0.03-0.01-0.04C9.01,6.76,9,6.74,9,6.73
		C9,6.72,8.98,6.7,8.98,6.69c0-0.01-0.01-0.03-0.01-0.04c0-0.01-0.01-0.03-0.01-0.04c0-0.01-0.01-0.03-0.01-0.04
		c0-0.01-0.01-0.03-0.01-0.04c0-0.01-0.01-0.03-0.01-0.04c0-0.01-0.01-0.03-0.01-0.04c0-0.01-0.01-0.03-0.01-0.04
		c0-0.01-0.01-0.03-0.01-0.04c0-0.01-0.01-0.03-0.01-0.04c0-0.01-0.01-0.03-0.01-0.04c0-0.01-0.01-0.03-0.01-0.04
		c0-0.01-0.01-0.03-0.01-0.04c0-0.01-0.01-0.03-0.01-0.04c0-0.01-0.01-0.03-0.01-0.04c0-0.01-0.01-0.03-0.01-0.04
		c0-0.01-0.01-0.03-0.01-0.04c0-0.01-0.01-0.03-0.01-0.04c0-0.01-0.01-0.03-0.01-0.04c0-0.01-0.01-0.03-0.01-0.04
		c0-0.01-0.01-0.03-0.01-0.04c0-0.01-0.01-0.03-0.01-0.04c0-0.01-0.01-0.03-0.01-0.04c0-0.01-0.01-0.03-0.01-0.04
		c0-0.01-0.01-0.03-0.01-0.04c0-0.01-0.01-0.03-0.01-0.04c0-0.01-0.01-0.03-0.01-0.04c0-0.01-0.01-0.03-0.01-0.04
		c0-0.01-0.01-0.03-0.01-0.04c0-0.01-0.01-0.03-0.01-0.04c0-0.01-0.01-0.03-0.01-0.04c0-0.01-0.01-0.03-0.01-0.04
		c0-0.01-0.01-0.03-0.01-0.04c0-0.01-0.01-0.03-0.01-0.04c0-0.01-0.01-0.03-0.01-0.04c0-0.01-0.01-0.03-0.01-0.04
		c0-0.01-0.01-0.03-0.01-0.04c0-0.01-0.01-0.03-0.01-0.04c0-0.01-0.01-0.03-0.01-0.04c0-0.01-0.01-0.03-0.01-0.04
		c0-0.01-0.01-0.03-0.01-0.04c0-0.01-0.01-0.03-0.01-0.04c0-0.01-0.01-0.03-0.01-0.04c0-0.01-0.01-0.03-0.01-0.04
		c0-0.01-0.01-0.03-0.01-0.04c0-0.01-0.01-0.03-0.01-0.04c0-0.01-0.01-0.03-0.01-0.04c0-0.01-0.01-0.03-0.01-0.04
		c0-0.01-0.01-0.03-0.01-0.04c0-0.01-0.01-0.03-0.01-0.04c0-0.01-0.01-0.03-0.01-0.04c0-0.01-0.01-0.03-0.01-0.04
		c0-0.01-0.01-0.03-0.01-0.04c0-0.01-0.01-0.03-0.01-0.04c0-0.01-0.01-0.03-0.01-0.04c0-0.01-0.01-0.03-0.01-0.04
		c0-0.01-0.01-0.03-0.01-0.04c0-0.01-0.01-0.03-0.01-0.04S8.13,4.14,8.13,4.12c0-0.01-0.01-0.03-0.01-0.04
		c0-0.01-0.01-0.03-0.01-0.04C8.1,4.02,8.08,4,8.08,3.99S8.07,3.96,8.07,3.94S8.05,3.91,8.05,3.9S8.04,3.87,8.04,3.86
		S8.02,3.83,8.02,3.81S8.01,3.78,8.01,3.77S7.99,3.74,7.99,3.72S7.98,3.69,7.98,3.68c0-0.01-0.01-0.03-0.01-0.04
		S7.95,3.61,7.95,3.59S7.93,3.56,7.93,3.55S7.92,3.52,7.92,3.5S7.91,3.47,7.91,3.46S7.89,3.43,7.89,3.41S7.88,3.38,7.88,3.37
		C7.72,2.98,7.51,2.59,7.24,2.21C7.18,2.14,7.09,2.12,7.02,2.15C6.51,2.42,6.15,2.91,5.98,3.24C5.92,3.2,5.86,3.15,5.81,3.12l0,0
		C5.78,3.11,5.75,3.09,5.73,3.09L5.72,3.08c-0.01,0-0.04-0.01-0.06-0.01c-0.01,0-0.03-0.01-0.04-0.01c-0.01,0-0.03,0-0.04-0.01
		c-0.01,0-0.04-0.01-0.06-0.01c-0.01,0-0.01,0-0.03,0c-0.03,0-0.04,0-0.07-0.01H5.4c-0.03,0-0.06,0-0.09,0c-0.04,0-0.07,0-0.12,0
		l0,0C4.98,3.02,4.81,3.09,4.65,3.22C4.43,2.79,4.07,2.37,3.6,2.14c-0.01,0-0.03-0.01-0.04-0.01H3.54c-0.01,0-0.03,0-0.04,0l0,0
		c-0.04,0-0.1,0.03-0.13,0.07c-0.96,1.32-1.09,2.8-1.09,3.54c0,0.23,0.04,0.45,0.13,0.65c0,0.01,0.01,0.03,0.01,0.04
		c0,0.01,0.01,0.03,0.01,0.04c0,0.01,0.01,0.03,0.01,0.04c0,0.01,0.01,0.03,0.01,0.04c0,0.01,0.01,0.03,0.01,0.04
		c0,0.01,0.01,0.03,0.01,0.04c0,0.01,0.01,0.03,0.01,0.04c0,0.01,0.01,0.03,0.01,0.04c0,0.01,0.01,0.03,0.01,0.04
		c0,0.01,0.01,0.03,0.01,0.04c0,0.01,0.01,0.03,0.01,0.04c0,0.01,0.01,0.03,0.01,0.04c0,0.01,0.01,0.03,0.01,0.04
		C2.6,6.97,2.62,6.99,2.62,7c0,0.01,0.01,0.03,0.01,0.04c0,0.01,0.01,0.03,0.01,0.04c0,0.01,0.01,0.03,0.01,0.04
		c0,0.01,0.01,0.03,0.01,0.04c0,0.01,0.01,0.03,0.01,0.04c0,0.01,0.01,0.03,0.01,0.04c0,0.01,0.01,0.03,0.01,0.04
		c0,0.01,0.01,0.03,0.01,0.04c0,0.01,0.01,0.03,0.01,0.04c0,0.01,0.01,0.03,0.01,0.04c0,0.01,0.01,0.03,0.01,0.04
		c0,0.01,0.01,0.03,0.01,0.04c0,0.01,0.01,0.03,0.01,0.04c0,0.01,0.01,0.03,0.01,0.04c0,0.01,0.01,0.03,0.01,0.04
		c0,0.01,0.01,0.03,0.01,0.04c0,0.01,0.01,0.03,0.01,0.04c0,0.01,0.01,0.03,0.01,0.04c0,0.01,0.01,0.03,0.01,0.04
		c0,0.01,0.01,0.03,0.01,0.04c0,0.01,0.01,0.03,0.01,0.04c0,0.01,0.01,0.03,0.01,0.04c0,0.01,0.01,0.03,0.01,0.04
		s0.01,0.03,0.01,0.04s0.01,0.03,0.01,0.04C2.99,8.12,3,8.14,3,8.15c0,0.01,0.01,0.03,0.01,0.04c0,0.01,0.01,0.03,0.01,0.04
		s0.01,0.03,0.01,0.04s0.01,0.03,0.01,0.04s0.01,0.03,0.01,0.04c0,0.01,0.01,0.03,0.01,0.04c0,0.01,0.01,0.03,0.01,0.04
		c0,0.01,0.01,0.03,0.01,0.04s0.01,0.03,0.01,0.04s0.01,0.03,0.01,0.04s0.01,0.03,0.01,0.04s0.01,0.03,0.01,0.04
		c0,0.01,0.01,0.03,0.01,0.04c0,0.01,0.01,0.03,0.01,0.04c0,0.01,0.01,0.03,0.01,0.04s0.01,0.03,0.01,0.04S3.25,8.89,3.25,8.9
		s0.01,0.03,0.01,0.04c0,0.01,0.01,0.03,0.01,0.04c0,0.01,0.01,0.03,0.01,0.04c0,0.01,0.01,0.03,0.01,0.04s0.01,0.03,0.01,0.04
		s0.01,0.03,0.01,0.04S3.36,9.2,3.36,9.21s0.01,0.03,0.01,0.04c0,0.01,0.01,0.03,0.01,0.04c0,0.01,0.01,0.03,0.01,0.04
		c0,0.01,0.01,0.03,0.01,0.04s0.01,0.03,0.01,0.03c0.51,0.19,1.06,0.29,1.64,0.29C6.8,9.71,8.36,8.7,9.16,7.22z"/>
	<path id="XMLID_5_" class="st2" d="M5,7.94c-1.44,0-3.01-0.91-3.01-2.28c0-0.74,0.13-2.22,1.09-3.54c0.06-0.07,0.15-0.09,0.22-0.06
		C3.8,2.34,4.16,2.83,4.33,3.16C4.52,3.02,4.74,2.94,5,2.94s0.48,0.07,0.67,0.22c0.17-0.33,0.52-0.83,1.04-1.09
		c0.07-0.04,0.17-0.01,0.22,0.06c0.96,1.32,1.09,2.8,1.09,3.54C8.01,7.03,6.44,7.94,5,7.94z"/>
	<path id="XMLID_6_" class="st3" d="M6.93,2.13C6.87,2.06,6.78,2.04,6.71,2.07c-0.01,0-0.03,0.01-0.03,0.01
		C6.69,2.1,6.71,2.12,6.72,2.13c0.96,1.32,1.09,2.8,1.09,3.54C7.81,7,6.3,7.9,4.9,7.94c0.04,0,0.07,0,0.12,0
		c1.44,0,3.01-0.91,3.01-2.28C8.01,4.93,7.88,3.45,6.93,2.13z"/>
	<path id="XMLID_7_" class="st4" d="M2.41,6.81C2.97,7.52,4.01,7.94,5,7.94s2.03-0.42,2.59-1.13C7.45,5.91,6.33,5.22,5,5.22
		S2.55,5.91,2.41,6.81z"/>
	<path id="XMLID_8_" class="st5" d="M5.22,7.94c0.04,0,0.09,0,0.13-0.01c0.01,0,0.03,0,0.04,0c0.06,0,0.12-0.01,0.16-0.03
		c0.01,0,0.01,0,0.03,0c0.04-0.01,0.1-0.01,0.15-0.03c0.01,0,0.03,0,0.04-0.01c0.04-0.01,0.09-0.01,0.15-0.03c0.01,0,0.01,0,0.03,0
		C6,7.81,6.06,7.79,6.11,7.78c0.01,0,0.01,0,0.03-0.01c0.04-0.01,0.09-0.03,0.15-0.04c0.01,0,0.03-0.01,0.03-0.01
		c0.1-0.04,0.22-0.09,0.32-0.13c0.01,0,0.01-0.01,0.03-0.01C6.7,7.53,6.75,7.52,6.79,7.49c0.01,0,0.01-0.01,0.03-0.01
		c0.1-0.06,0.2-0.12,0.29-0.19l0.01-0.01c0.04-0.03,0.09-0.06,0.13-0.1l0.01-0.01c0.09-0.07,0.17-0.15,0.25-0.23l0.01-0.01
		c0.03-0.04,0.07-0.07,0.1-0.12l0,0C7.62,6.72,7.6,6.63,7.58,6.56C7.08,7.37,5.98,7.88,4.94,7.92c0.03,0,0.07,0,0.1,0
		c0.06,0,0.12,0,0.16,0C5.19,7.94,5.2,7.94,5.22,7.94z"/>
	<path id="XMLID_9_" class="st3" d="M5.59,3.25c0.01-0.03,0.03-0.06,0.07-0.09C5.43,2.97,5.19,2.94,5,2.94c-0.04,0-0.07,0-0.12,0
		C5.1,2.96,5.43,3.12,5.59,3.25z"/>
	<path id="XMLID_10_" class="st3" d="M4.19,3.23c0.04-0.04,0.09-0.04,0.15-0.07C4.12,2.73,3.75,2.31,3.29,2.07
		C3.24,2.04,3.16,2.04,3.1,2.09C3.61,2.35,4.01,2.91,4.19,3.23z"/>
	<circle id="XMLID_11_" class="st6" cx="4.13" cy="4.71" r="0.36"/>
	<circle id="XMLID_12_" class="st7" cx="4.13" cy="4.71" r="0.17"/>
	<circle id="XMLID_13_" class="st6" cx="5.8" cy="4.71" r="0.36"/>
	<circle id="XMLID_14_" class="st7" cx="5.8" cy="4.71" r="0.17"/>
	<path id="XMLID_15_" class="st7" d="M4.12,5.88c-0.01,0-0.01,0-0.03,0L2.91,5.52C2.87,5.51,2.86,5.46,2.87,5.43
		c0.01-0.04,0.06-0.06,0.09-0.04l1.17,0.36c0.04,0.01,0.06,0.06,0.04,0.09C4.17,5.87,4.15,5.88,4.12,5.88z"/>
	<path id="XMLID_16_" class="st7" d="M4.12,6.39c-0.01,0-0.01,0-0.03,0L2.91,6.03C2.87,6.01,2.86,5.97,2.87,5.94
		C2.88,5.9,2.93,5.88,2.95,5.9l1.17,0.36c0.04,0.01,0.06,0.06,0.04,0.09C4.17,6.38,4.15,6.39,4.12,6.39z"/>
	<path id="XMLID_17_" class="st7" d="M6.1,5.88c0.01,0,0.01,0,0.03,0L7.3,5.52c0.04-0.01,0.06-0.06,0.04-0.09
		C7.33,5.39,7.29,5.38,7.26,5.39L6.09,5.75C6.04,5.77,6.03,5.81,6.04,5.84C6.04,5.87,6.07,5.88,6.1,5.88z"/>
	<path id="XMLID_18_" class="st7" d="M6.1,6.39c0.01,0,0.01,0,0.03,0L7.3,6.03c0.04-0.01,0.06-0.06,0.04-0.09
		C7.33,5.9,7.29,5.88,7.26,5.9L6.09,6.26C6.04,6.27,6.03,6.32,6.04,6.35C6.04,6.38,6.07,6.39,6.1,6.39z"/>
	<path id="XMLID_19_" class="st4" d="M4.04,3.25c-0.1-0.19-0.38-0.61-0.8-0.85C2.91,2.87,2.7,3.38,2.55,3.84
		C3.04,3.49,3.58,3.33,4.04,3.25z"/>
	<path id="XMLID_20_" class="st4" d="M5.93,3.25c0.1-0.19,0.38-0.61,0.8-0.85c0.33,0.48,0.55,0.99,0.7,1.45
		C6.94,3.49,6.39,3.33,5.93,3.25z"/>
	<path id="XMLID_21_" class="st7" d="M5.54,5.49C5.52,5.46,5.49,5.43,5.45,5.43H5H4.55c-0.04,0-0.07,0.03-0.09,0.06
		s-0.01,0.07,0.01,0.1l0.43,0.48L4.58,6.41c-0.03,0.03-0.03,0.07,0,0.1c0.03,0.03,0.07,0.03,0.1,0L5,6.19l0.32,0.32
		c0.01,0.01,0.03,0.01,0.06,0.01c0.01,0,0.04,0,0.06-0.01c0.03-0.03,0.03-0.07,0-0.1L5.1,6.07l0.43-0.48
		C5.55,5.57,5.55,5.54,5.54,5.49z"/>
</g>
</svg>
