<?xml version="1.0" encoding="utf-8"?>
<!-- Generator: Adobe Illustrator 28.1.0, SVG Export Plug-In . SVG Version: 6.00 Build 0)  -->
<svg version="1.1" id="Camada_1" xmlns="http://www.w3.org/2000/svg" xmlns:xlink="http://www.w3.org/1999/xlink" x="0px" y="0px"
	 viewBox="0 0 41 40" style="enable-background:new 0 0 41 40;" xml:space="preserve">
<style type="text/css">
	.st0{fill:#E55A2D;}
	.st1{fill:#CC5028;}
	.st2{fill:#253740;}
	.st3{fill:#1F2C33;}
	.st4{fill:#456473;}
	.st5{fill:#3D5866;}
	.st6{fill:#FFD364;}
	.st7{fill:#232324;}
</style>
<g id="XMLID_1_">
	<circle id="XMLID_3_" class="st0" cx="20.5" cy="20" r="19.14"/>
	<path id="XMLID_4_" class="st1" d="M37.4,29.01c0-0.06-0.06-0.12-0.06-0.18s-0.06-0.12-0.06-0.18s-0.06-0.12-0.06-0.18
		s-0.06-0.12-0.06-0.18s-0.06-0.12-0.06-0.18s-0.06-0.12-0.06-0.18s-0.06-0.12-0.06-0.18c0-0.06-0.06-0.12-0.06-0.18
		s-0.06-0.12-0.06-0.18s-0.06-0.12-0.06-0.18s-0.06-0.12-0.06-0.18s-0.06-0.12-0.06-0.18s-0.06-0.12-0.06-0.18s-0.06-0.12-0.06-0.18
		s-0.06-0.12-0.06-0.18s-0.06-0.12-0.06-0.18s-0.06-0.12-0.06-0.18c0-0.06-0.06-0.12-0.06-0.18s-0.06-0.12-0.06-0.18
		s-0.06-0.12-0.06-0.18s-0.06-0.12-0.06-0.18s-0.06-0.12-0.06-0.18s-0.06-0.12-0.06-0.18s-0.06-0.12-0.06-0.18s-0.06-0.12-0.06-0.18
		s-0.06-0.12-0.06-0.18s-0.06-0.12-0.06-0.18s-0.06-0.12-0.06-0.18c0-0.06-0.06-0.12-0.06-0.18s-0.06-0.12-0.06-0.18
		s-0.06-0.12-0.06-0.18s-0.06-0.12-0.06-0.18s-0.06-0.12-0.06-0.18s-0.06-0.12-0.06-0.18s-0.06-0.12-0.06-0.18s-0.06-0.12-0.06-0.18
		s-0.06-0.12-0.06-0.18s-0.06-0.12-0.06-0.18s-0.06-0.12-0.06-0.18S35,21.88,35,21.82s-0.06-0.12-0.06-0.18s-0.06-0.12-0.06-0.18
		s-0.06-0.12-0.06-0.18s-0.06-0.12-0.06-0.18s-0.06-0.12-0.06-0.18s-0.06-0.12-0.06-0.18s-0.06-0.12-0.06-0.18s-0.06-0.12-0.06-0.18
		s-0.06-0.12-0.06-0.18c0-0.06-0.06-0.12-0.06-0.18s-0.06-0.12-0.06-0.18s-0.06-0.12-0.06-0.18s-0.06-0.12-0.06-0.18
		s-0.06-0.12-0.06-0.18s-0.06-0.12-0.06-0.18s-0.06-0.12-0.06-0.18s-0.06-0.12-0.06-0.18s-0.06-0.12-0.06-0.18s-0.06-0.12-0.06-0.18
		s-0.06-0.12-0.06-0.18c0-0.06-0.06-0.12-0.06-0.18s-0.06-0.12-0.06-0.18s-0.06-0.12-0.06-0.18s-0.06-0.12-0.06-0.18
		s-0.06-0.12-0.06-0.18s-0.06-0.12-0.06-0.18s-0.06-0.12-0.06-0.18s-0.06-0.12-0.06-0.18s-0.06-0.12-0.06-0.18
		c0-0.06-0.06-0.12-0.06-0.18c0-0.06-0.06-0.12-0.06-0.18s-0.06-0.12-0.06-0.18s-0.06-0.12-0.06-0.18c0-0.06-0.06-0.12-0.06-0.18
		s-0.06-0.12-0.06-0.18s-0.06-0.12-0.06-0.18s-0.06-0.12-0.06-0.18s-0.06-0.12-0.06-0.18c0-0.06-0.06-0.12-0.06-0.18
		s-0.06-0.12-0.06-0.18s-0.06-0.12-0.06-0.18s-0.06-0.12-0.06-0.18s-0.06-0.12-0.06-0.18s-0.06-0.12-0.06-0.18s-0.06-0.12-0.06-0.18
		s-0.06-0.12-0.06-0.18s-0.06-0.12-0.06-0.18c-0.65-1.59-1.47-3.18-2.59-4.71c-0.23-0.29-0.59-0.35-0.88-0.23
		c-2.06,1.06-3.53,3.06-4.24,4.42c-0.23-0.18-0.47-0.35-0.7-0.47l0,0c-0.12-0.06-0.23-0.12-0.29-0.12l-0.06-0.06
		c-0.06,0-0.18-0.06-0.23-0.06c-0.06,0-0.12-0.06-0.18-0.06c-0.06,0-0.12,0-0.18-0.06c-0.06,0-0.18-0.06-0.23-0.06
		c-0.06,0-0.06,0-0.12,0c-0.12,0-0.18,0-0.29-0.06h-0.06c-0.12,0-0.23,0-0.35,0c-0.18,0-0.29,0-0.47,0l0,0
		c-0.88,0.06-1.59,0.35-2.24,0.88c-0.88-1.77-2.36-3.47-4.24-4.42c-0.06,0-0.12-0.06-0.18-0.06h-0.06c-0.06,0-0.12,0-0.18,0l0,0
		c-0.18,0-0.41,0.12-0.53,0.29c-3.89,5.36-4.42,11.37-4.42,14.37c0,0.94,0.18,1.83,0.53,2.65c0,0.06,0.06,0.12,0.06,0.18
		s0.06,0.12,0.06,0.18s0.06,0.12,0.06,0.18s0.06,0.12,0.06,0.18s0.06,0.12,0.06,0.18s0.06,0.12,0.06,0.18s0.06,0.12,0.06,0.18
		s0.06,0.12,0.06,0.18s0.06,0.12,0.06,0.18s0.06,0.12,0.06,0.18s0.06,0.12,0.06,0.18s0.06,0.12,0.06,0.18
		c0,0.06,0.06,0.12,0.06,0.18s0.06,0.12,0.06,0.18s0.06,0.12,0.06,0.18s0.06,0.12,0.06,0.18s0.06,0.12,0.06,0.18
		s0.06,0.12,0.06,0.18s0.06,0.12,0.06,0.18s0.06,0.12,0.06,0.18s0.06,0.12,0.06,0.18s0.06,0.12,0.06,0.18s0.06,0.12,0.06,0.18
		c0,0.06,0.06,0.12,0.06,0.18s0.06,0.12,0.06,0.18s0.06,0.12,0.06,0.18s0.06,0.12,0.06,0.18s0.06,0.12,0.06,0.18
		s0.06,0.12,0.06,0.18s0.06,0.12,0.06,0.18s0.06,0.12,0.06,0.18s0.06,0.12,0.06,0.18s0.06,0.12,0.06,0.18s0.06,0.12,0.06,0.18
		s0.06,0.12,0.06,0.18s0.06,0.12,0.06,0.18s0.06,0.12,0.06,0.18s0.06,0.12,0.06,0.18s0.06,0.12,0.06,0.18
		c0,0.06,0.06,0.12,0.06,0.18s0.06,0.12,0.06,0.18s0.06,0.12,0.06,0.18s0.06,0.12,0.06,0.18s0.06,0.12,0.06,0.18
		s0.06,0.12,0.06,0.18s0.06,0.12,0.06,0.18S12.8,34,12.8,34.06s0.06,0.12,0.06,0.18s0.06,0.12,0.06,0.18s0.06,0.12,0.06,0.18
		s0.06,0.12,0.06,0.18s0.06,0.12,0.06,0.18s0.06,0.12,0.06,0.18s0.06,0.12,0.06,0.18s0.06,0.12,0.06,0.18s0.06,0.12,0.06,0.18
		s0.06,0.12,0.06,0.18s0.06,0.12,0.06,0.18s0.06,0.12,0.06,0.18s0.06,0.12,0.06,0.18s0.06,0.12,0.06,0.18s0.06,0.12,0.06,0.18
		s0.06,0.12,0.06,0.18s0.06,0.12,0.06,0.18s0.06,0.12,0.06,0.18s0.06,0.12,0.06,0.18S14,37.59,14,37.65s0.06,0.12,0.06,0.18
		s0.06,0.12,0.06,0.12c2.06,0.76,4.3,1.18,6.66,1.18C27.8,39.14,34.16,35.02,37.4,29.01z"/>
	<path id="XMLID_5_" class="st2" d="M20.5,31.96c-5.83,0-12.25-3.71-12.25-9.25c0-3,0.53-9.01,4.42-14.37
		c0.23-0.29,0.59-0.35,0.88-0.23c2.06,1.06,3.53,3.06,4.24,4.42c0.76-0.59,1.65-0.88,2.71-0.88c1.06,0,1.95,0.29,2.71,0.88
		c0.7-1.36,2.12-3.35,4.24-4.42c0.29-0.18,0.7-0.06,0.88,0.23c3.89,5.36,4.42,11.37,4.42,14.37C32.75,28.24,26.33,31.96,20.5,31.96z
		"/>
	<path id="XMLID_6_" class="st3" d="M28.33,8.34c-0.23-0.29-0.59-0.35-0.88-0.23c-0.06,0-0.12,0.06-0.12,0.06
		c0.06,0.06,0.12,0.12,0.18,0.18c3.89,5.36,4.42,11.37,4.42,14.37c0,5.42-6.12,9.07-11.84,9.25c0.18,0,0.29,0,0.47,0
		c5.83,0,12.25-3.71,12.25-9.25C32.75,19.71,32.22,13.7,28.33,8.34z"/>
	<path id="XMLID_7_" class="st4" d="M9.96,27.36c2.3,2.88,6.54,4.59,10.54,4.59s8.24-1.71,10.54-4.59
		c-0.59-3.65-5.12-6.48-10.54-6.48S10.55,23.71,9.96,27.36z"/>
	<path id="XMLID_8_" class="st5" d="M21.38,31.96c0.18,0,0.35,0,0.53-0.06c0.06,0,0.12,0,0.18,0c0.23,0,0.47-0.06,0.65-0.12
		c0.06,0,0.06,0,0.12,0c0.18-0.06,0.41-0.06,0.59-0.12c0.06,0,0.12,0,0.18-0.06c0.18-0.06,0.35-0.06,0.59-0.12c0.06,0,0.06,0,0.12,0
		c0.23-0.06,0.47-0.12,0.65-0.18c0.06,0,0.06,0,0.12-0.06c0.18-0.06,0.35-0.12,0.59-0.18c0.06,0,0.12-0.06,0.12-0.06
		c0.41-0.18,0.88-0.35,1.3-0.53c0.06,0,0.06-0.06,0.12-0.06c0.18-0.12,0.35-0.18,0.53-0.29c0.06,0,0.06-0.06,0.12-0.06
		c0.41-0.23,0.82-0.47,1.18-0.76l0.06-0.06c0.18-0.12,0.35-0.23,0.53-0.41l0.06-0.06c0.35-0.29,0.7-0.59,1-0.94l0.06-0.06
		c0.12-0.18,0.29-0.29,0.41-0.47l0,0c-0.06-0.29-0.12-0.65-0.23-0.94c-2,3.29-6.48,5.36-10.71,5.53c0.12,0,0.29,0,0.41,0
		c0.23,0,0.47,0,0.65,0C21.26,31.96,21.32,31.96,21.38,31.96z"/>
	<path id="XMLID_9_" class="st3" d="M22.91,12.87c0.06-0.12,0.12-0.23,0.29-0.35c-0.94-0.76-1.95-0.88-2.71-0.88
		c-0.18,0-0.29,0-0.47,0C20.91,11.7,22.27,12.35,22.91,12.87z"/>
	<path id="XMLID_10_" class="st3" d="M17.21,12.82c0.18-0.18,0.35-0.18,0.59-0.29c-0.88-1.77-2.36-3.47-4.24-4.42
		c-0.23-0.12-0.53-0.12-0.76,0.06C14.85,9.23,16.49,11.52,17.21,12.82z"/>
	<circle id="XMLID_11_" class="st6" cx="16.97" cy="18.82" r="1.47"/>
	<circle id="XMLID_12_" class="st7" cx="16.97" cy="18.82" r="0.7"/>
	<circle id="XMLID_13_" class="st6" cx="23.74" cy="18.82" r="1.47"/>
	<circle id="XMLID_14_" class="st7" cx="23.74" cy="18.82" r="0.7"/>
	<path id="XMLID_15_" class="st7" d="M16.91,23.59c-0.06,0-0.06,0-0.12,0l-4.77-1.47c-0.18-0.06-0.23-0.23-0.18-0.35
		c0.06-0.18,0.23-0.23,0.35-0.18l4.77,1.47c0.18,0.06,0.23,0.23,0.18,0.35C17.15,23.53,17.03,23.59,16.91,23.59z"/>
	<path id="XMLID_16_" class="st7" d="M16.91,25.65c-0.06,0-0.06,0-0.12,0l-4.77-1.47c-0.18-0.06-0.23-0.23-0.18-0.35
		c0.06-0.18,0.23-0.23,0.35-0.18l4.77,1.47c0.18,0.06,0.23,0.23,0.18,0.35C17.15,25.59,17.03,25.65,16.91,25.65z"/>
	<path id="XMLID_17_" class="st7" d="M24.98,23.59c0.06,0,0.06,0,0.12,0l4.77-1.47c0.18-0.06,0.23-0.23,0.18-0.35
		c-0.06-0.18-0.23-0.23-0.35-0.18l-4.78,1.47c-0.18,0.06-0.23,0.23-0.18,0.35C24.74,23.53,24.86,23.59,24.98,23.59z"/>
	<path id="XMLID_18_" class="st7" d="M24.98,25.65c0.06,0,0.06,0,0.12,0l4.77-1.47c0.18-0.06,0.23-0.23,0.18-0.35
		c-0.06-0.18-0.23-0.23-0.35-0.18l-4.78,1.47c-0.18,0.06-0.23,0.23-0.18,0.35C24.74,25.59,24.86,25.65,24.98,25.65z"/>
	<path id="XMLID_19_" class="st4" d="M16.61,12.87c-0.41-0.76-1.53-2.47-3.24-3.47c-1.36,1.95-2.24,4.01-2.83,5.88
		C12.55,13.88,14.73,13.23,16.61,12.87z"/>
	<path id="XMLID_20_" class="st4" d="M24.27,12.87c0.41-0.76,1.53-2.47,3.24-3.47c1.36,1.95,2.24,4.01,2.83,5.88
		C28.39,13.88,26.15,13.23,24.27,12.87z"/>
	<path id="XMLID_21_" class="st7" d="M22.68,22c-0.06-0.12-0.18-0.23-0.35-0.23H20.5h-1.83c-0.18,0-0.29,0.12-0.35,0.23
		c-0.06,0.11-0.06,0.29,0.06,0.41l1.77,1.95l-1.36,1.36c-0.12,0.12-0.12,0.29,0,0.41c0.12,0.12,0.29,0.12,0.41,0l1.3-1.3l1.3,1.3
		c0.06,0.06,0.12,0.06,0.23,0.06c0.06,0,0.18,0,0.23-0.06c0.12-0.12,0.12-0.29,0-0.41l-1.36-1.36l1.77-1.95
		C22.74,22.3,22.74,22.18,22.68,22z"/>
</g>
</svg>
